Coordinates
version=1
nRows=6
nColumns=36
inDegrees=yes

Units are S.I. units (second, meters, Newtons, ...)
If the header above contains a line with 'inDegrees', this indicates whether rotational values are in degrees (yes) or radians (no).

endheader
time	pelvis_tilt	pelvis_list	pelvis_rotation	pelvis_tx	pelvis_ty	pelvis_tz	hip_flexion_r	hip_adduction_r	hip_rotation_r	knee_angle_r	knee_angle_r_beta	ankle_angle_r	subtalar_angle_r	mtp_angle_r	hip_flexion_l	hip_adduction_l	hip_rotation_l	knee_angle_l	knee_angle_l_beta	ankle_angle_l	subtalar_angle_l	mtp_angle_l	lumbar_extension	lumbar_bending	lumbar_rotation	arm_flex_r	arm_add_r	arm_rot_r	elbow_flex_r	pro_sup_r	arm_flex_l	arm_add_l	arm_rot_l	elbow_flex_l	pro_sup_l
      1.68333330	      0.43526703	      0.93932024	      4.55269564	      0.44531801	      0.96131333	     -0.15360211	     12.07144803	      6.43539186	     14.69366849	     21.97065419	      0.38346025	     12.14302459	    -12.87023611	     -7.49221590	     26.23198040	     -4.66304321	    -13.14175735	     43.83644621	      0.76509032	     -4.81567824	    -24.99163557	     -7.49221590	     -4.72440728	      0.18922496	      6.38295930	     47.10333471	      5.33229171	     67.44325347	    120.46317907	     81.66723601	     40.18976874	      7.85316758	     69.39837850	    126.26908119	     66.76195394
      1.70000000	      0.75450764	      0.85358017	      4.36685389	      0.44564023	      0.96188996	     -0.15366637	     12.24603358	      6.45324344	     14.41461842	     22.72049283	      0.39654741	     12.46498739	    -12.17597713	     -7.49352146	     26.96645659	     -5.08074249	    -13.30695582	     44.85107153	      0.78279887	     -3.66810218	    -23.65186634	     -7.49352146	     -5.18970440	      0.32346381	      6.60346891	     47.11669070	      5.22817513	     67.38524810	    120.55342863	     86.50216670	     40.17061263	      8.01557579	     69.36279185	    126.35962321	     69.85457223
      1.71666670	      0.89577007	      0.73633747	      4.41573074	      0.44506394	      0.96161565	     -0.15375537	     12.45903878	      6.51404279	     14.23365639	     23.14929878	      0.40403148	     12.80497890	    -11.74285336	     -7.49363366	     27.69821644	     -5.33918907	    -13.09096256	     44.92153893	      0.78402876	     -2.26191337	    -22.74022438	     -7.49363366	     -5.47689933	      0.53575934	      6.73283078	     47.35821421	      5.20080954	     67.77143523	    120.61799500	     86.55390327	     40.37354825	      8.17936362	     69.53154267	    126.31762093	     69.90317515
      1.73333330	      1.07258533	      0.57923561	      4.51475728	      0.44562309	      0.95939126	     -0.15332294	     12.72920228	      6.66098907	     13.80250039	     23.72647516	      0.41410511	     13.59987779	    -10.73554718	     -7.49381312	     28.32151699	     -5.63036366	    -13.16799051	     44.64426257	      0.77918937	     -0.05474059	    -21.90184546	     -7.49381312	     -5.76589667	      0.81941926	      7.13034780	     47.52152340	      5.08948811	     67.86095856	    120.69987170	     86.56696145	     40.57178206	      8.40640469	     69.71938719	    126.29030396	     70.00093239
      1.75000000	      1.27127324	      0.42818634	      4.46770293	      0.44112838	      0.95925438	     -0.15026240	     13.07173837	      6.90865933	     13.60163463	     24.33510378	      0.42472768	     14.01799298	    -10.63928035	     -7.49388014	     29.28904628	     -5.99630683	    -13.27142859	     44.68168250	      0.77984247	      0.78603064	    -22.36922793	     -7.49388014	     -6.43817873	      1.02486730	      7.23746597	     47.60598353	      5.22146050	     67.90878855	    120.69676312	     86.52277630	     40.87984609	      8.50062918	     69.50280521	    125.95043620	     69.98868722
      1.76666670	      1.28502386	      0.32506532	      4.26748875	      0.43696140	      0.96100607	     -0.15253860	     13.58478552	      6.93979826	     13.42582754	     24.80284560	      0.43289132	     13.74069163	    -10.35250538	     -7.49393429	     30.22294736	     -6.23645089	    -13.30903369	     43.94369359	      0.76696214	      1.03347977	    -22.47563496	     -7.49393429	     -7.21013447	      1.38667381	      7.15156484	     47.58165256	      5.25039250	     68.06122576	    120.67153255	     86.46495290	     41.07219099	      8.37329889	     69.36168450	    125.55680781	     69.95771631
